<svg id="svg" version="1.1" xmlns="http://www.w3.org/2000/svg" xmlns:xlink="http://www.w3.org/1999/xlink" width="400" height="400" viewBox="0, 0, 400,400"><g id="svgg"><path id="path0" d="M108.768 12.883 C 107.174 17.036,110.400 30.819,115.935 43.513 L 125.999 66.593 103.949 80.577 C 58.739 109.248,51.245 211.440,89.968 271.217 C 96.225 280.876,117.321 270.040,117.363 257.146 C 117.431 236.185,129.885 206.024,152.230 172.701 C 165.304 153.205,176.000 134.692,176.000 131.560 C 176.000 127.574,177.732 127.599,181.775 131.642 C 185.919 135.786,184.536 143.990,176.876 160.699 C 161.375 194.513,166.268 192.716,205.718 150.107 C 248.385 104.023,268.899 98.012,229.700 143.080 C 203.593 173.095,196.837 186.667,208.000 186.667 C 210.933 186.667,213.333 184.676,213.333 182.242 C 213.333 173.948,272.920 111.939,277.921 115.030 C 280.660 116.723,268.449 133.881,250.784 153.159 C 232.305 173.325,218.743 192.978,218.845 199.438 C 218.995 208.855,221.793 207.241,236.179 189.442 C 268.302 149.696,281.781 136.003,285.307 139.529 C 287.244 141.467,280.685 152.265,270.730 163.526 C 250.917 185.939,229.333 215.813,229.333 220.823 C 229.333 229.980,239.848 221.303,255.276 199.414 C 264.808 185.892,273.901 176.123,275.484 177.706 C 277.067 179.289,271.268 190.952,262.597 203.625 C 253.927 216.298,242.851 234.434,237.984 243.928 C 221.731 275.629,196.242 298.878,156.489 318.263 C 113.514 339.218,112.886 340.751,132.846 376.000 L 141.906 392.000 197.620 393.348 C 263.723 394.948,259.222 397.525,283.841 344.000 C 352.869 193.922,353.508 108.872,285.893 71.033 C 278.018 66.626,278.028 64.417,286.012 44.090 C 301.056 5.793,300.036 5.333,200.000 5.333 C 128.739 5.333,111.105 6.793,108.768 12.883 " stroke="none" fill="#000000" fill-rule="evenodd"></path></g></svg>